<svg id="SvgjsSvg1024" width="256" height="256" xmlns="http://www.w3.org/2000/svg" version="1.1" xmlns:xlink="http://www.w3.org/1999/xlink" xmlns:svgjs="http://svgjs.com/svgjs"><defs id="SvgjsDefs1025"></defs><g id="SvgjsG1026"><svg xmlns="http://www.w3.org/2000/svg" enable-background="new 0 0 32 32" viewBox="0 0 32 32" width="256" height="256"><path fill="#8f4f38" d="M16,31.84C7.266,31.84,0.16,24.734,0.16,16S7.266,0.16,16,0.16S31.84,7.266,31.84,16S24.734,31.84,16,31.84z M16,3.284C8.988,3.284,3.283,8.988,3.283,16c0,7.013,5.705,12.717,12.717,12.717S28.717,23.013,28.717,16C28.717,8.988,23.012,3.284,16,3.284z" class="color323232 svgShape"></path><path fill="#8f4f38" d="M21.819,19.453L18.366,16l3.453-3.452c0.653-0.653,0.653-1.713,0-2.366c-0.655-0.654-1.715-0.654-2.366,0L16,13.635l-3.452-3.453c-0.653-0.654-1.713-0.654-2.366,0c-0.653,0.653-0.653,1.713,0,2.366L13.634,16l-3.452,3.453c-0.653,0.653-0.653,1.713,0,2.366s1.713,0.653,2.364-0.001L16,18.365l3.453,3.454c0.653,0.653,1.713,0.653,2.367,0C22.474,21.166,22.474,20.106,21.819,19.453z" class="color323232 svgShape"></path></svg></g></svg>