<svg id="SvgjsSvg1015" width="256" height="256" xmlns="http://www.w3.org/2000/svg" version="1.1" xmlns:xlink="http://www.w3.org/1999/xlink" xmlns:svgjs="http://svgjs.com/svgjs"><defs id="SvgjsDefs1016"></defs><g id="SvgjsG1017"><svg xmlns="http://www.w3.org/2000/svg" fill-rule="evenodd" stroke-linejoin="round" stroke-miterlimit="2" clip-rule="evenodd" viewBox="0 0 32 32" width="256" height="256"><path d="M5.999 16.14v4.296H4.668a2.38 2.38 0 0 0 0 4.757h1.331v2.226a2.38 2.38 0 0 0 4.757 0v-2.226h1.421a2.38 2.38 0 0 0 0-4.757h-1.422l.001-4.296a7.134 7.134 0 0 0 4.748-6.72 7.13 7.13 0 0 0-7.127-7.127A7.131 7.131 0 0 0 1.25 9.42c0 3.1 1.983 5.74 4.749 6.72zm2.378-9.09a2.371 2.371 0 0 1 0 4.741 2.371 2.371 0 0 1 0-4.741zm12.619 3.363v5.537a7.133 7.133 0 0 0-4.749 6.72 7.13 7.13 0 0 0 7.127 7.127 7.13 7.13 0 0 0 7.127-7.127c0-3.1-1.983-5.74-4.749-6.72v-5.537l.906.906a2.38 2.38 0 0 0 3.364-3.363L25.056 2.99a2.379 2.379 0 0 0-3.364 0l-4.966 4.966a2.38 2.38 0 0 0 3.364 3.363l.906-.906zm2.378 14.628a2.371 2.371 0 1 1 2.371-2.371 2.373 2.373 0 0 1-2.371 2.371z" fill="#8f4f38" class="color000 svgShape"></path></svg></g></svg>